<?xml version="1.0" encoding="utf-8"?>
<svg width="168px" height="44px" viewBox="0 0 168 44" version="1.1" xmlns:xlink="http://www.w3.org/1999/xlink" xmlns="http://www.w3.org/2000/svg">
  <g id="STDlEarn">
    <path d="M16.517 15.103Q17.2457 15.8253 17.1307 17.0909L23.9318 17.0909Q24.3665 14.5085 23.4268 12.5909Q22.4872 10.6733 20.3459 9.61221Q18.2045 8.55114 15.0341 8.55113Q11.9148 8.55114 9.35156 9.59304Q6.78835 10.6349 5.13281 12.5078Q3.47727 14.3807 3.06818 16.8864Q2.5696 19.9545 4.26989 21.7187Q5.97017 23.483 9.30682 24.25L11.8125 24.8125Q13.9219 25.2727 14.7081 25.88Q15.4943 26.4872 15.3409 27.3693Q15.1875 28.3281 14.2095 28.9482Q13.2315 29.5682 11.5057 29.5682Q9.47301 29.5682 8.45668 28.6285Q7.44034 27.6889 7.67045 25.8864L0.920455 25.8864Q0.383523 29.1591 1.43821 31.2621Q2.4929 33.3651 4.86435 34.3814Q7.2358 35.3977 10.6364 35.3977Q15.6222 35.3977 18.7862 33.3203Q21.9503 31.2429 22.6023 27.3693Q23.1009 24.3778 21.5156 22.3196Q19.9304 20.2614 15.75 19.3409L13.7045 18.8807Q10.8823 18.2817 10.5753 17.0539Q10.4957 16.7356 10.5852 16.375Q10.7386 15.4929 11.576 14.9368Q12.4134 14.3807 14.0625 14.3807Q15.7884 14.3807 16.517 15.103ZM27.6648 8.90909L26.6932 14.6364L34.5682 14.6364L31.1932 35.0909L38.1989 35.0909L41.5739 14.6364L49.4489 14.6364L50.4205 8.90909L27.6648 8.90909ZM58.9602 35.0909L48.733 35.0909L53.0795 8.90909L62.8977 8.90909Q66.9375 8.90909 69.6477 10.5327Q72.358 12.1562 73.4957 15.1733Q74.6335 18.1903 73.9432 22.358Q73.2784 26.3722 71.2521 29.223Q69.2259 32.0739 66.0874 33.5824C63.995 34.5881 61.6193 35.0909 58.9602 35.0909ZM82.2784 35.0909L86.625 8.90909L79.5682 8.90909L75.2216 35.0909L82.2784 35.0909ZM85.7557 35.0909L90.1023 8.90909L108.972 8.90909L108 14.6364L96.2386 14.6364L95.5227 19.1364L106.313 19.1364L105.341 24.8636L94.5511 24.8636L93.8352 29.3636L105.545 29.3636L104.574 35.0909L85.7557 35.0909ZM56.8381 29.0568L59.4205 29.0568Q61.3636 29.0568 62.8913 28.3729Q64.419 27.6889 65.4482 26.0717Q66.4773 24.4545 66.9375 21.642Q67.3722 18.983 66.9119 17.532Q66.4517 16.081 65.1605 15.5121Q63.8693 14.9432 61.8239 14.9432L59.1903 14.9432L56.8381 29.0568ZM109.317 33.9915Q110.876 35.3977 113.676 35.3977Q115.594 35.3977 117.153 34.6882Q118.713 33.9787 119.864 32.3295L120.017 32.3295L119.557 35.0909L126.153 35.0909L128.403 21.642Q128.71 19.8267 127.854 18.3693Q126.997 16.9119 125.105 16.0554Q123.213 15.1989 120.426 15.1989Q117.486 15.1989 115.37 16.1129Q113.254 17.027 111.982 18.5419Q110.71 20.0568 110.301 21.8466L116.795 21.8466Q117.064 20.9261 117.786 20.4915Q118.509 20.0568 119.506 20.0568Q120.426 20.0568 120.944 20.4659Q121.462 20.875 121.347 21.642L121.347 21.6932Q121.193 22.5369 120.087 22.8885Q118.982 23.2401 116.489 23.4318Q114.443 23.5852 112.705 24.2372Q110.966 24.8892 109.79 26.206Q108.614 27.5227 108.256 29.6705Q107.757 32.5852 109.317 33.9915ZM129.528 35.0909L132.801 15.4545L139.653 15.4545L139.04 19.1875L139.244 19.1875Q140.126 17.1165 141.456 16.1577Q142.786 15.1989 144.358 15.1989Q144.818 15.1989 145.246 15.2692Q145.675 15.3395 146.097 15.4545L145.074 21.4886Q144.575 21.2969 143.834 21.2138Q143.092 21.1307 142.517 21.1307Q140.983 21.1307 139.781 22.1534Q138.58 23.1761 138.273 24.8636L136.585 35.0909L129.528 35.0909ZM145.176 35.0909L152.233 35.0909L154.074 24.0455Q154.317 22.5881 155.237 21.7571Q156.158 20.9261 157.449 20.9261Q158.804 20.9261 159.398 21.7571Q159.993 22.5881 159.75 24.0455L157.909 35.0909L164.966 35.0909L167.063 22.5625Q167.433 20.4148 166.858 18.7528Q166.283 17.0909 164.902 16.1449Q163.521 15.1989 161.438 15.1989Q159.264 15.1989 157.468 16.2535Q155.672 17.3082 154.739 19.1875L154.534 19.1875L155.148 15.4545L148.449 15.4545L145.176 35.0909ZM119.013 30.2138Q117.933 30.9489 116.744 30.9489Q115.824 30.9489 115.332 30.5078Q114.839 30.0668 114.955 29.2614Q115.07 28.4943 115.734 27.951Q116.399 27.4077 117.665 27.2159Q118.509 27.0625 119.256 26.8963Q120.004 26.7301 120.58 26.5L120.324 28.1364Q120.094 29.4787 119.013 30.2138Z" />
  </g>
</svg>