<?xml version="1.0" encoding="UTF-8" standalone="no"?>
<svg
   viewBox="0 0 1440 320"
   version="1.1"
   id="svg4"
   sodipodi:docname="wave_down_2.svg"
   inkscape:version="1.1 (c68e22c387, 2021-05-23)"
   xmlns:inkscape="http://www.inkscape.org/namespaces/inkscape"
   xmlns:sodipodi="http://sodipodi.sourceforge.net/DTD/sodipodi-0.dtd"
   xmlns="http://www.w3.org/2000/svg"
   xmlns:svg="http://www.w3.org/2000/svg">
  <defs
     id="defs8" />
  <sodipodi:namedview
     id="namedview6"
     pagecolor="#ffffff"
     bordercolor="#999999"
     borderopacity="1"
     inkscape:pageshadow="0"
     inkscape:pageopacity="0"
     inkscape:pagecheckerboard="0"
     showgrid="false"
     inkscape:zoom="0.73472222"
     inkscape:cx="719.31947"
     inkscape:cy="159.92439"
     inkscape:window-width="1366"
     inkscape:window-height="705"
     inkscape:window-x="-8"
     inkscape:window-y="-8"
     inkscape:window-maximized="1"
     inkscape:current-layer="svg4" />
  <path
     fill="#0affa5"
     fill-opacity="1"
     d="M0,192L60,160C120,128,240,64,360,58.7C480,53,600,107,720,149.3C840,192,960,224,1080,208C1200,192,1320,128,1380,96L1440,64L1440,0L1380,0C1320,0,1200,0,1080,0C960,0,840,0,720,0C600,0,480,0,360,0C240,0,120,0,60,0L0,0Z"
     id="path2" />
</svg>
