<?xml version="1.0" encoding="utf-8"?>
<svg width="74px" height="74px" viewBox="0 0 74 74" version="1.1" xmlns:xlink="http://www.w3.org/1999/xlink" xmlns="http://www.w3.org/2000/svg">
  <path d="M74 37C74 16.5655 57.4345 0 37 0C16.5655 0 0 16.5655 0 37C0 57.4345 16.5655 74 37 74C57.4345 74 74 57.4345 74 37L74 37ZM67.4222 37.4111C67.4222 20.3823 53.6177 6.57777 36.5889 6.57777C19.5601 6.57777 5.75555 20.3823 5.75555 37.4111C5.75555 54.4399 19.5601 68.2444 36.5889 68.2444C53.6177 68.2444 67.4222 54.4399 67.4222 37.4111L67.4222 37.4111ZM11.0045 37.0001L31.0026 22L31.0027 31.0019L31.0027 52L11.0045 37.0001L11.0045 37.0001ZM61 43.0008L31.0027 43.0009L31.0027 31.0019L61 31.0019L61 43.0008L61 43.0008Z" id="Vector" fill="#0A66A5" fill-rule="evenodd" stroke="none" />
</svg>