<?xml version="1.0" encoding="utf-8"?>
<svg width="74px" height="74px" viewBox="0 0 74 74" version="1.1" xmlns:xlink="http://www.w3.org/1999/xlink" xmlns="http://www.w3.org/2000/svg">
  <path d="M37 0C16.5655 0 0 16.5655 0 37C0 57.4345 16.5655 74 37 74C57.4345 74 74 57.4345 74 37C74 16.5655 57.4345 0 37 0L37 0ZM37.4111 6.57777C20.3823 6.57777 6.57777 20.3823 6.57777 37.4111C6.57777 54.4399 20.3823 68.2444 37.4111 68.2444C54.4399 68.2444 68.2444 54.4399 68.2444 37.4111C68.2444 20.3823 54.4399 6.57777 37.4111 6.57777L37.4111 6.57777ZM42.9974 22L62.9955 37.0001L42.9973 52L42.9974 22L42.9974 22ZM42.9973 43.0009L13 43.0008L13 31.0019L42.9973 31.0019L42.9973 43.0009L42.9973 43.0009Z" id="Vector" fill="#0A66A5" fill-rule="evenodd" stroke="none" />
</svg>