<svg width="30" height="30" viewBox="0 0 30 30" fill="none" xmlns="http://www.w3.org/2000/svg">
<circle cx="15" cy="15" r="14.75" stroke="white" stroke-width="0.5"/>
<path d="M15.096 19.4796C14.6609 19.9148 13.2828 19.2449 12.0199 17.9821C10.7613 16.7234 10.0914 15.3454 10.5266 14.9102L12.5959 12.8409L9.15705 9.4021L7.44191 11.1172C6.17902 12.3801 7.71497 15.9683 10.8765 19.1255C14.0379 22.287 17.6218 23.8229 18.8847 22.5558L20.5998 20.8406L17.1653 17.4103L15.096 19.4796Z" fill="white"/>
<path opacity="0.5" d="M14.9978 7V8.59994C18.5262 8.59994 21.3976 11.4713 21.3976 14.9997H22.9975C22.9975 10.5796 19.4136 7 14.9978 7Z" fill="white"/>
<path d="M18.1977 14.9998H19.7976C19.7976 12.3545 17.643 10.2 14.9978 10.2V11.7999C16.7641 11.7999 18.1977 13.2334 18.1977 14.9998Z" fill="white"/>
</svg>
